<svg xmlns="http://www.w3.org/2000/svg" width="1600" height="900" viewBox="0 0 1600 900" role="img" aria-labelledby="title desc">
  <title id="title">Qwen3.6 27B FP8 KV Throughput</title>
  <desc id="desc">Grouped bar charts for prefill and decode throughput across noMTP, MTP3, four KV precision settings, and 4K/64K workloads.</desc>

  <defs>
    <style>
      .bg { fill: #f7f8fb; }
      .panel { fill: #ffffff; stroke: #d9dee8; stroke-width: 1; }
      .title { font: 700 32px Inter, ui-sans-serif, system-ui, -apple-system, BlinkMacSystemFont, "Segoe UI", sans-serif; fill: #141a24; }
      .subtitle { font: 500 17px Inter, ui-sans-serif, system-ui, -apple-system, BlinkMacSystemFont, "Segoe UI", sans-serif; fill: #526073; }
      .section { font: 700 22px Inter, ui-sans-serif, system-ui, -apple-system, BlinkMacSystemFont, "Segoe UI", sans-serif; fill: #172033; }
      .axis { stroke: #ccd4df; stroke-width: 1; }
      .grid { stroke: #e7ebf2; stroke-width: 1; }
      .tick { font: 500 12px Inter, ui-sans-serif, system-ui, -apple-system, BlinkMacSystemFont, "Segoe UI", sans-serif; fill: #7a8494; }
      .label { font: 700 14px Inter, ui-sans-serif, system-ui, -apple-system, BlinkMacSystemFont, "Segoe UI", sans-serif; fill: #29364a; }
      .mode { font: 800 15px Inter, ui-sans-serif, system-ui, -apple-system, BlinkMacSystemFont, "Segoe UI", sans-serif; fill: #172033; }
      .value { font: 700 11px Inter, ui-sans-serif, system-ui, -apple-system, BlinkMacSystemFont, "Segoe UI", sans-serif; fill: #172033; }
      .small { font: 500 12px Inter, ui-sans-serif, system-ui, -apple-system, BlinkMacSystemFont, "Segoe UI", sans-serif; fill: #667386; }
      .legend { font: 600 14px Inter, ui-sans-serif, system-ui, -apple-system, BlinkMacSystemFont, "Segoe UI", sans-serif; fill: #334157; }
      .bar4k { fill: #2f80ed; }
      .bar64k { fill: #00a878; }
      .groupBand { fill: #f1f4fa; }
      .divider { stroke: #cdd6e5; stroke-width: 2; stroke-dasharray: 6 6; }
    </style>
  </defs>

  <rect class="bg" x="0" y="0" width="1600" height="900"/>
  <text class="title" x="54" y="58">Qwen3.6 27B FP8 KV Throughput</text>
  <text class="subtitle" x="54" y="88">noMTP vs MTP3 · FP16 / INT8 / TQK8V4 / TQ4NC KV · prefill and decode shown separately</text>
  <g transform="translate(54 108)">
    <rect class="panel" x="0" y="0" width="1430" height="54" rx="14"/>
    <rect class="bar4k" x="24" y="18" width="28" height="18" rx="5"/>
    <text class="legend" x="64" y="32">PP4096/TG128: short input + short output</text>
    <rect class="bar64k" x="430" y="18" width="28" height="18" rx="5"/>
    <text class="legend" x="470" y="32">PP65536/TG512: long input + long output</text>
    <text class="small" x="930" y="32">Each KV precision group has two adjacent bars: 4K and 64K.</text>
  </g>
<text class="section" x="54" y="122">Prefill throughput</text>
<text class="small" x="170" y="122">prompt processing tok/s</text>
<rect class="panel" x="54" y="142" width="1430" height="285" rx="16"/>
<line class="grid" x1="86" y1="389.0" x2="1406" y2="389.0"/>
<text class="tick" x="58" y="393.0">0</text>
<line class="grid" x1="86" y1="328.7" x2="1406" y2="328.7"/>
<text class="tick" x="58" y="332.7">500</text>
<line class="grid" x1="86" y1="268.5" x2="1406" y2="268.5"/>
<text class="tick" x="58" y="272.5">1000</text>
<line class="grid" x1="86" y1="208.2" x2="1406" y2="208.2"/>
<text class="tick" x="58" y="212.2">1500</text>
<line class="grid" x1="86" y1="160.0" x2="1406" y2="160.0"/>
<text class="tick" x="58" y="164.0">1900</text>
<line class="axis" x1="86" y1="389" x2="1406" y2="389"/>
<line class="axis" x1="86" y1="168" x2="86" y2="389"/>
<rect class="groupBand" x="96" y="154" width="690" height="267" rx="12"/>
<text class="mode" x="110" y="178">noMTP</text>
<rect class="bar4k" x="148" y="186.9" width="28" height="202.1" rx="5"/>
<text class="value" x="162.0" y="180.9" text-anchor="middle">1677.0</text>
<rect class="bar64k" x="186" y="231.8" width="28" height="157.2" rx="5"/>
<text class="value" x="200.0" y="225.8" text-anchor="middle">1303.9</text>
<text class="label" x="189" y="417" text-anchor="middle">FP16</text>
<rect class="bar4k" x="316" y="188.6" width="28" height="200.4" rx="5"/>
<text class="value" x="330.0" y="182.6" text-anchor="middle">1663.0</text>
<rect class="bar64k" x="354" y="235.4" width="28" height="153.6" rx="5"/>
<text class="value" x="368.0" y="229.4" text-anchor="middle">1274.8</text>
<text class="label" x="357" y="417" text-anchor="middle">INT8</text>
<rect class="bar4k" x="484" y="194.7" width="28" height="194.3" rx="5"/>
<text class="value" x="498.0" y="188.7" text-anchor="middle">1612.1</text>
<rect class="bar64k" x="522" y="235.0" width="28" height="154.0" rx="5"/>
<text class="value" x="536.0" y="229.0" text-anchor="middle">1277.9</text>
<text class="label" x="525" y="417" text-anchor="middle">TQK8V4</text>
<rect class="bar4k" x="652" y="189.4" width="28" height="199.6" rx="5"/>
<text class="value" x="666.0" y="183.4" text-anchor="middle">1656.4</text>
<rect class="bar64k" x="690" y="235.5" width="28" height="153.5" rx="5"/>
<text class="value" x="704.0" y="229.5" text-anchor="middle">1273.9</text>
<text class="label" x="693" y="417" text-anchor="middle">TQ4NC</text>
<rect class="groupBand" x="798" y="154" width="690" height="267" rx="12"/>
<text class="mode" x="812" y="178">MTP3</text>
<rect class="bar4k" x="850" y="194.5" width="28" height="194.5" rx="5"/>
<text class="value" x="864.0" y="188.5" text-anchor="middle">1614.1</text>
<rect class="bar64k" x="888" y="237.9" width="28" height="151.1" rx="5"/>
<text class="value" x="902.0" y="231.9" text-anchor="middle">1253.9</text>
<text class="label" x="891" y="417" text-anchor="middle">FP16</text>
<rect class="bar4k" x="1018" y="195.0" width="28" height="194.0" rx="5"/>
<text class="value" x="1032.0" y="189.0" text-anchor="middle">1609.9</text>
<rect class="bar64k" x="1056" y="241.0" width="28" height="148.0" rx="5"/>
<text class="value" x="1070.0" y="235.0" text-anchor="middle">1227.9</text>
<text class="label" x="1059" y="417" text-anchor="middle">INT8</text>
<rect class="bar4k" x="1186" y="194.4" width="28" height="194.6" rx="5"/>
<text class="value" x="1200.0" y="188.4" text-anchor="middle">1614.6</text>
<rect class="bar64k" x="1224" y="240.5" width="28" height="148.5" rx="5"/>
<text class="value" x="1238.0" y="234.5" text-anchor="middle">1231.7</text>
<text class="label" x="1227" y="417" text-anchor="middle">TQK8V4</text>
<rect class="bar4k" x="1354" y="195.8" width="28" height="193.2" rx="5"/>
<text class="value" x="1368.0" y="189.8" text-anchor="middle">1602.8</text>
<rect class="bar64k" x="1392" y="241.1" width="28" height="147.9" rx="5"/>
<text class="value" x="1406.0" y="235.1" text-anchor="middle">1227.2</text>
<text class="label" x="1395" y="417" text-anchor="middle">TQ4NC</text>
<line class="divider" x1="792.0" y1="158" x2="792.0" y2="425"/>
<text class="section" x="54" y="492">Decode throughput</text>
<text class="small" x="170" y="492">generation tok/s after prefill</text>
<rect class="panel" x="54" y="512" width="1430" height="285" rx="16"/>
<line class="grid" x1="86" y1="759.0" x2="1406" y2="759.0"/>
<text class="tick" x="58" y="763.0">0</text>
<line class="grid" x1="86" y1="707.0" x2="1406" y2="707.0"/>
<text class="tick" x="58" y="711.0">25</text>
<line class="grid" x1="86" y1="654.9" x2="1406" y2="654.9"/>
<text class="tick" x="58" y="658.9">50</text>
<line class="grid" x1="86" y1="602.9" x2="1406" y2="602.9"/>
<text class="tick" x="58" y="606.9">75</text>
<line class="grid" x1="86" y1="550.8" x2="1406" y2="550.8"/>
<text class="tick" x="58" y="554.8">100</text>
<line class="axis" x1="86" y1="759" x2="1406" y2="759"/>
<line class="axis" x1="86" y1="538" x2="86" y2="759"/>
<rect class="groupBand" x="96" y="524" width="690" height="267" rx="12"/>
<text class="mode" x="110" y="548">noMTP</text>
<rect class="bar4k" x="148" y="690.5" width="28" height="68.5" rx="5"/>
<text class="value" x="162.0" y="684.5" text-anchor="middle">32.9</text>
<rect class="bar64k" x="186" y="698.4" width="28" height="60.6" rx="5"/>
<text class="value" x="200.0" y="692.4" text-anchor="middle">29.1</text>
<text class="label" x="189" y="787" text-anchor="middle">FP16</text>
<rect class="bar4k" x="316" y="689.3" width="28" height="69.7" rx="5"/>
<text class="value" x="330.0" y="683.3" text-anchor="middle">33.5</text>
<rect class="bar64k" x="354" y="688.8" width="28" height="70.2" rx="5"/>
<text class="value" x="368.0" y="682.8" text-anchor="middle">33.7</text>
<text class="label" x="357" y="787" text-anchor="middle">INT8</text>
<rect class="bar4k" x="484" y="695.9" width="28" height="63.1" rx="5"/>
<text class="value" x="498.0" y="689.9" text-anchor="middle">30.3</text>
<rect class="bar64k" x="522" y="715.9" width="28" height="43.1" rx="5"/>
<text class="value" x="536.0" y="709.9" text-anchor="middle">20.7</text>
<text class="label" x="525" y="787" text-anchor="middle">TQK8V4</text>
<rect class="bar4k" x="652" y="696.8" width="28" height="62.2" rx="5"/>
<text class="value" x="666.0" y="690.8" text-anchor="middle">29.9</text>
<rect class="bar64k" x="690" y="718.2" width="28" height="40.8" rx="5"/>
<text class="value" x="704.0" y="712.2" text-anchor="middle">19.6</text>
<text class="label" x="693" y="787" text-anchor="middle">TQ4NC</text>
<rect class="groupBand" x="798" y="524" width="690" height="267" rx="12"/>
<text class="mode" x="812" y="548">MTP3</text>
<rect class="bar4k" x="850" y="600.8" width="28" height="158.2" rx="5"/>
<text class="value" x="864.0" y="594.8" text-anchor="middle">76.0</text>
<rect class="bar64k" x="888" y="611.6" width="28" height="147.4" rx="5"/>
<text class="value" x="902.0" y="605.6" text-anchor="middle">70.8</text>
<text class="label" x="891" y="787" text-anchor="middle">FP16</text>
<rect class="bar4k" x="1018" y="604.1" width="28" height="154.9" rx="5"/>
<text class="value" x="1032.0" y="598.1" text-anchor="middle">74.4</text>
<rect class="bar64k" x="1056" y="669.9" width="28" height="89.1" rx="5"/>
<text class="value" x="1070.0" y="663.9" text-anchor="middle">42.8</text>
<text class="label" x="1059" y="787" text-anchor="middle">INT8</text>
<rect class="bar4k" x="1186" y="612.4" width="28" height="146.6" rx="5"/>
<text class="value" x="1200.0" y="606.4" text-anchor="middle">70.4</text>
<rect class="bar64k" x="1224" y="682.2" width="28" height="76.8" rx="5"/>
<text class="value" x="1238.0" y="676.2" text-anchor="middle">36.9</text>
<text class="label" x="1227" y="787" text-anchor="middle">TQK8V4</text>
<rect class="bar4k" x="1354" y="609.7" width="28" height="149.3" rx="5"/>
<text class="value" x="1368.0" y="603.7" text-anchor="middle">71.7</text>
<rect class="bar64k" x="1392" y="689.1" width="28" height="69.9" rx="5"/>
<text class="value" x="1406.0" y="683.1" text-anchor="middle">33.6</text>
<text class="label" x="1395" y="787" text-anchor="middle">TQ4NC</text>
<line class="divider" x1="792.0" y1="528" x2="792.0" y2="795"/>
  <text class="small" x="54" y="872">Source: docs/qwen36-kv-throughput-sweep.md · values are prefill/decode tok/s, single request.</text>
</svg>
